<svg width="40" height="40" viewBox="0 0 40 40" fill="none" xmlns="http://www.w3.org/2000/svg">
<path d="M20 23.334C22.7614 23.334 25 21.0954 25 18.334C25 15.5726 22.7614 13.334 20 13.334C17.2386 13.334 15 15.5726 15 18.334C15 21.0954 17.2386 23.334 20 23.334Z" stroke="#FFC11E" stroke-width="1.83333" stroke-linecap="round" stroke-linejoin="round"/>
<path d="M29.4283 27.7612L22.3567 34.8328C21.7316 35.4572 20.8843 35.808 20.0008 35.808C19.1174 35.808 18.27 35.4572 17.645 34.8328L10.5717 27.7612C8.70703 25.8965 7.43722 23.5207 6.92281 20.9343C6.40839 18.3479 6.67248 15.667 7.68167 13.2307C8.69086 10.7944 10.3998 8.71208 12.5925 7.24702C14.7851 5.78197 17.3629 5 20 5C22.6371 5 25.2149 5.78197 27.4075 7.24702C29.6002 8.71208 31.3091 10.7944 32.3183 13.2307C33.3275 15.667 33.5916 18.3479 33.0772 20.9343C32.5628 23.5207 31.293 25.8965 29.4283 27.7612V27.7612Z" stroke="#FFC11E" stroke-width="1.83333" stroke-linecap="round" stroke-linejoin="round"/>
</svg>
